<svg width="16" height="16" viewBox="0 0 16 16" fill="none" xmlns="http://www.w3.org/2000/svg">
<path d="M7.26833 12.9668L10.4583 6.73346H8.25833V2.70012L4.95833 8.93346H7.26833V12.9668ZM7.70833 15.1668C6.69389 15.1668 5.74056 14.9743 4.84833 14.5893C3.95611 14.2043 3.18 13.6818 2.52 13.0218C1.86 12.3618 1.3375 11.5857 0.9525 10.6935C0.5675 9.80123 0.375 8.8479 0.375 7.83346C0.375 6.81901 0.5675 5.86568 0.9525 4.97346C1.3375 4.08123 1.86 3.30512 2.52 2.64512C3.18 1.98512 3.95611 1.46262 4.84833 1.07762C5.74056 0.692622 6.69389 0.500122 7.70833 0.500122C8.72278 0.500122 9.67611 0.692622 10.5683 1.07762C11.4606 1.46262 12.2367 1.98512 12.8967 2.64512C13.5567 3.30512 14.0792 4.08123 14.4642 4.97346C14.8492 5.86568 15.0417 6.81901 15.0417 7.83346C15.0417 8.8479 14.8492 9.80123 14.4642 10.6935C14.0792 11.5857 13.5567 12.3618 12.8967 13.0218C12.2367 13.6818 11.4606 14.2043 10.5683 14.5893C9.67611 14.9743 8.72278 15.1668 7.70833 15.1668Z" fill="#894189"/>
<path d="M7.64167 12.5001L10.5417 6.83341H8.54167V3.16675L5.54167 8.83341H7.64167V12.5001ZM8.04167 14.5001C7.11944 14.5001 6.25278 14.3251 5.44167 13.9751C4.63056 13.6251 3.925 13.1501 3.325 12.5501C2.725 11.9501 2.25 11.2445 1.9 10.4334C1.55 9.6223 1.375 8.75564 1.375 7.83341C1.375 6.91119 1.55 6.04453 1.9 5.23341C2.25 4.4223 2.725 3.71675 3.325 3.11675C3.925 2.51675 4.63056 2.04175 5.44167 1.69175C6.25278 1.34175 7.11944 1.16675 8.04167 1.16675C8.96389 1.16675 9.83055 1.34175 10.6417 1.69175C11.4528 2.04175 12.1583 2.51675 12.7583 3.11675C13.3583 3.71675 13.8333 4.4223 14.1833 5.23341C14.5333 6.04453 14.7083 6.91119 14.7083 7.83341C14.7083 8.75564 14.5333 9.6223 14.1833 10.4334C13.8333 11.2445 13.3583 11.9501 12.7583 12.5501C12.1583 13.1501 11.4528 13.6251 10.6417 13.9751C9.83055 14.3251 8.96389 14.5001 8.04167 14.5001Z" fill="white"/>
</svg>
