<svg width="22" height="22" viewBox="0 0 22 22" fill="none" xmlns="http://www.w3.org/2000/svg">
<path d="M10.585 0.0108032C12.0475 0.0108032 13.4219 0.287906 14.708 0.842834C15.9944 1.39794 17.114 2.15113 18.0654 3.1026C19.0169 4.05409 19.7701 5.17357 20.3252 6.46002C20.8801 7.74617 21.1572 9.12052 21.1572 10.5831C21.1572 12.0456 20.8801 13.42 20.3252 14.7061C19.7701 15.9926 19.0169 17.1121 18.0654 18.0635C17.1139 19.015 15.9945 19.7682 14.708 20.3233C13.4219 20.8782 12.0475 21.1553 10.585 21.1553C9.12241 21.1553 7.74806 20.8783 6.46191 20.3233C5.17546 19.7682 4.05598 19.015 3.10449 18.0635C2.15302 17.1121 1.39983 15.9926 0.844727 14.7061C0.289798 13.42 0.0126953 12.0456 0.0126953 10.5831C0.0127002 9.12053 0.289784 7.74616 0.844727 6.46002C1.39984 5.17357 2.15301 4.05409 3.10449 3.1026C4.05598 2.15111 5.17546 1.39795 6.46191 0.842834C7.74805 0.287892 9.12242 0.0108081 10.585 0.0108032ZM9.67285 4.48639C8.79324 4.68163 8.10556 5.07089 7.61133 5.65338C7.11581 6.23755 6.86819 6.89296 6.86816 7.6192C6.86816 8.45079 7.1111 9.12444 7.59863 9.63873C8.08564 10.1523 8.85098 10.5941 9.89258 10.9649C11.0039 11.3706 11.7744 11.7325 12.2051 12.0489C12.6342 12.3642 12.8486 12.7749 12.8486 13.2823C12.8486 13.8611 12.6428 14.285 12.2324 14.5557C11.8203 14.8275 11.3241 14.9629 10.7441 14.963C10.1648 14.963 9.65075 14.7837 9.20312 14.4239C8.75595 14.0643 8.427 13.5241 8.21582 12.8028L8.21191 12.7891L8.19922 12.794L6.45215 13.4825L6.44141 13.4864L6.44531 13.4971C6.69277 14.3455 7.07743 15.0316 7.59961 15.5538C8.1199 16.0739 8.79355 16.4311 9.62012 16.626V18.0049H11.4971V16.6788C12.3766 16.5188 13.1342 16.1761 13.7686 15.6475C14.4072 15.1153 14.7256 14.3258 14.7256 13.2823C14.7256 12.5388 14.5127 11.8569 14.0879 11.2374C13.7154 10.6944 13.0185 10.214 11.999 9.79498L11.542 9.61823L10.8096 9.36237C10.1384 9.1144 9.65093 8.89121 9.34766 8.69342C8.94552 8.43098 8.74512 8.0732 8.74512 7.6192C8.74514 7.16394 8.90734 6.806 9.23047 6.54401C9.55373 6.28204 10.0221 6.14951 10.6377 6.14948C11.2003 6.14948 11.6385 6.28582 11.9531 6.5567C12.269 6.82867 12.4973 7.16664 12.6377 7.57037L12.6416 7.58307L12.6533 7.57819L14.3477 6.88971L14.3584 6.8858L14.3545 6.87506C14.1597 6.25533 13.8012 5.715 13.2793 5.25494C12.7601 4.79733 12.1834 4.54063 11.5498 4.48541V3.16119H9.67285V4.48639Z" fill="url(#paint0_linear_5_250)"/>
<path d="M10.585 0.0108032C12.0475 0.0108032 13.4219 0.287906 14.708 0.842834C15.9944 1.39794 17.114 2.15113 18.0654 3.1026C19.0169 4.05409 19.7701 5.17357 20.3252 6.46002C20.8801 7.74617 21.1572 9.12052 21.1572 10.5831C21.1572 12.0456 20.8801 13.42 20.3252 14.7061C19.7701 15.9926 19.0169 17.1121 18.0654 18.0635C17.1139 19.015 15.9945 19.7682 14.708 20.3233C13.4219 20.8782 12.0475 21.1553 10.585 21.1553C9.12241 21.1553 7.74806 20.8783 6.46191 20.3233C5.17546 19.7682 4.05598 19.015 3.10449 18.0635C2.15302 17.1121 1.39983 15.9926 0.844727 14.7061C0.289798 13.42 0.0126953 12.0456 0.0126953 10.5831C0.0127002 9.12053 0.289784 7.74616 0.844727 6.46002C1.39984 5.17357 2.15301 4.05409 3.10449 3.1026C4.05598 2.15111 5.17546 1.39795 6.46191 0.842834C7.74805 0.287892 9.12242 0.0108081 10.585 0.0108032ZM9.67285 4.48639C8.79324 4.68163 8.10556 5.07089 7.61133 5.65338C7.11581 6.23755 6.86819 6.89296 6.86816 7.6192C6.86816 8.45079 7.1111 9.12444 7.59863 9.63873C8.08564 10.1523 8.85098 10.5941 9.89258 10.9649C11.0039 11.3706 11.7744 11.7325 12.2051 12.0489C12.6342 12.3642 12.8486 12.7749 12.8486 13.2823C12.8486 13.8611 12.6428 14.285 12.2324 14.5557C11.8203 14.8275 11.3241 14.9629 10.7441 14.963C10.1648 14.963 9.65075 14.7837 9.20312 14.4239C8.75595 14.0643 8.427 13.5241 8.21582 12.8028L8.21191 12.7891L8.19922 12.794L6.45215 13.4825L6.44141 13.4864L6.44531 13.4971C6.69277 14.3455 7.07743 15.0316 7.59961 15.5538C8.1199 16.0739 8.79355 16.4311 9.62012 16.626V18.0049H11.4971V16.6788C12.3766 16.5188 13.1342 16.1761 13.7686 15.6475C14.4072 15.1153 14.7256 14.3258 14.7256 13.2823C14.7256 12.5388 14.5127 11.8569 14.0879 11.2374C13.7154 10.6944 13.0185 10.214 11.999 9.79498L11.542 9.61823L10.8096 9.36237C10.1384 9.1144 9.65093 8.89121 9.34766 8.69342C8.94552 8.43098 8.74512 8.0732 8.74512 7.6192C8.74514 7.16394 8.90734 6.806 9.23047 6.54401C9.55373 6.28204 10.0221 6.14951 10.6377 6.14948C11.2003 6.14948 11.6385 6.28582 11.9531 6.5567C12.269 6.82867 12.4973 7.16664 12.6377 7.57037L12.6416 7.58307L12.6533 7.57819L14.3477 6.88971L14.3584 6.8858L14.3545 6.87506C14.1597 6.25533 13.8012 5.715 13.2793 5.25494C12.7601 4.79733 12.1834 4.54063 11.5498 4.48541V3.16119H9.67285V4.48639Z" fill="black" fill-opacity="0.2"/>
<path d="M10.585 0.0108032C12.0475 0.0108032 13.4219 0.287906 14.708 0.842834C15.9944 1.39794 17.114 2.15113 18.0654 3.1026C19.0169 4.05409 19.7701 5.17357 20.3252 6.46002C20.8801 7.74617 21.1572 9.12052 21.1572 10.5831C21.1572 12.0456 20.8801 13.42 20.3252 14.7061C19.7701 15.9926 19.0169 17.1121 18.0654 18.0635C17.1139 19.015 15.9945 19.7682 14.708 20.3233C13.4219 20.8782 12.0475 21.1553 10.585 21.1553C9.12241 21.1553 7.74806 20.8783 6.46191 20.3233C5.17546 19.7682 4.05598 19.015 3.10449 18.0635C2.15302 17.1121 1.39983 15.9926 0.844727 14.7061C0.289798 13.42 0.0126953 12.0456 0.0126953 10.5831C0.0127002 9.12053 0.289784 7.74616 0.844727 6.46002C1.39984 5.17357 2.15301 4.05409 3.10449 3.1026C4.05598 2.15111 5.17546 1.39795 6.46191 0.842834C7.74805 0.287892 9.12242 0.0108081 10.585 0.0108032ZM9.67285 4.48639C8.79324 4.68163 8.10556 5.07089 7.61133 5.65338C7.11581 6.23755 6.86819 6.89296 6.86816 7.6192C6.86816 8.45079 7.1111 9.12444 7.59863 9.63873C8.08564 10.1523 8.85098 10.5941 9.89258 10.9649C11.0039 11.3706 11.7744 11.7325 12.2051 12.0489C12.6342 12.3642 12.8486 12.7749 12.8486 13.2823C12.8486 13.8611 12.6428 14.285 12.2324 14.5557C11.8203 14.8275 11.3241 14.9629 10.7441 14.963C10.1648 14.963 9.65075 14.7837 9.20312 14.4239C8.75595 14.0643 8.427 13.5241 8.21582 12.8028L8.21191 12.7891L8.19922 12.794L6.45215 13.4825L6.44141 13.4864L6.44531 13.4971C6.69277 14.3455 7.07743 15.0316 7.59961 15.5538C8.1199 16.0739 8.79355 16.4311 9.62012 16.626V18.0049H11.4971V16.6788C12.3766 16.5188 13.1342 16.1761 13.7686 15.6475C14.4072 15.1153 14.7256 14.3258 14.7256 13.2823C14.7256 12.5388 14.5127 11.8569 14.0879 11.2374C13.7154 10.6944 13.0185 10.214 11.999 9.79498L11.542 9.61823L10.8096 9.36237C10.1384 9.1144 9.65093 8.89121 9.34766 8.69342C8.94552 8.43098 8.74512 8.0732 8.74512 7.6192C8.74514 7.16394 8.90734 6.806 9.23047 6.54401C9.55373 6.28204 10.0221 6.14951 10.6377 6.14948C11.2003 6.14948 11.6385 6.28582 11.9531 6.5567C12.269 6.82867 12.4973 7.16664 12.6377 7.57037L12.6416 7.58307L12.6533 7.57819L14.3477 6.88971L14.3584 6.8858L14.3545 6.87506C14.1597 6.25533 13.8012 5.715 13.2793 5.25494C12.7601 4.79733 12.1834 4.54063 11.5498 4.48541V3.16119H9.67285V4.48639Z" stroke="black" stroke-width="0.025"/>
<path d="M10.585 0.0108032C12.0475 0.0108032 13.4219 0.287906 14.708 0.842834C15.9944 1.39794 17.114 2.15113 18.0654 3.1026C19.0169 4.05409 19.7701 5.17357 20.3252 6.46002C20.8801 7.74617 21.1572 9.12052 21.1572 10.5831C21.1572 12.0456 20.8801 13.42 20.3252 14.7061C19.7701 15.9926 19.0169 17.1121 18.0654 18.0635C17.1139 19.015 15.9945 19.7682 14.708 20.3233C13.4219 20.8782 12.0475 21.1553 10.585 21.1553C9.12241 21.1553 7.74806 20.8783 6.46191 20.3233C5.17546 19.7682 4.05598 19.015 3.10449 18.0635C2.15302 17.1121 1.39983 15.9926 0.844727 14.7061C0.289798 13.42 0.0126953 12.0456 0.0126953 10.5831C0.0127002 9.12053 0.289784 7.74616 0.844727 6.46002C1.39984 5.17357 2.15301 4.05409 3.10449 3.1026C4.05598 2.15111 5.17546 1.39795 6.46191 0.842834C7.74805 0.287892 9.12242 0.0108081 10.585 0.0108032ZM9.67285 4.48639C8.79324 4.68163 8.10556 5.07089 7.61133 5.65338C7.11581 6.23755 6.86819 6.89296 6.86816 7.6192C6.86816 8.45079 7.1111 9.12444 7.59863 9.63873C8.08564 10.1523 8.85098 10.5941 9.89258 10.9649C11.0039 11.3706 11.7744 11.7325 12.2051 12.0489C12.6342 12.3642 12.8486 12.7749 12.8486 13.2823C12.8486 13.8611 12.6428 14.285 12.2324 14.5557C11.8203 14.8275 11.3241 14.9629 10.7441 14.963C10.1648 14.963 9.65075 14.7837 9.20312 14.4239C8.75595 14.0643 8.427 13.5241 8.21582 12.8028L8.21191 12.7891L8.19922 12.794L6.45215 13.4825L6.44141 13.4864L6.44531 13.4971C6.69277 14.3455 7.07743 15.0316 7.59961 15.5538C8.1199 16.0739 8.79355 16.4311 9.62012 16.626V18.0049H11.4971V16.6788C12.3766 16.5188 13.1342 16.1761 13.7686 15.6475C14.4072 15.1153 14.7256 14.3258 14.7256 13.2823C14.7256 12.5388 14.5127 11.8569 14.0879 11.2374C13.7154 10.6944 13.0185 10.214 11.999 9.79498L11.542 9.61823L10.8096 9.36237C10.1384 9.1144 9.65093 8.89121 9.34766 8.69342C8.94552 8.43098 8.74512 8.0732 8.74512 7.6192C8.74514 7.16394 8.90734 6.806 9.23047 6.54401C9.55373 6.28204 10.0221 6.14951 10.6377 6.14948C11.2003 6.14948 11.6385 6.28582 11.9531 6.5567C12.269 6.82867 12.4973 7.16664 12.6377 7.57037L12.6416 7.58307L12.6533 7.57819L14.3477 6.88971L14.3584 6.8858L14.3545 6.87506C14.1597 6.25533 13.8012 5.715 13.2793 5.25494C12.7601 4.79733 12.1834 4.54063 11.5498 4.48541V3.16119H9.67285V4.48639Z" stroke="black" stroke-opacity="0.2" stroke-width="0.025"/>
<path d="M10.585 0.0108032C12.0475 0.0108032 13.4219 0.287906 14.708 0.842834C15.9944 1.39794 17.114 2.15113 18.0654 3.1026C19.0169 4.05409 19.7701 5.17357 20.3252 6.46002C20.8801 7.74617 21.1572 9.12052 21.1572 10.5831C21.1572 12.0456 20.8801 13.42 20.3252 14.7061C19.7701 15.9926 19.0169 17.1121 18.0654 18.0635C17.1139 19.015 15.9945 19.7682 14.708 20.3233C13.4219 20.8782 12.0475 21.1553 10.585 21.1553C9.12241 21.1553 7.74806 20.8783 6.46191 20.3233C5.17546 19.7682 4.05598 19.015 3.10449 18.0635C2.15302 17.1121 1.39983 15.9926 0.844727 14.7061C0.289798 13.42 0.0126953 12.0456 0.0126953 10.5831C0.0127002 9.12053 0.289784 7.74616 0.844727 6.46002C1.39984 5.17357 2.15301 4.05409 3.10449 3.1026C4.05598 2.15111 5.17546 1.39795 6.46191 0.842834C7.74805 0.287892 9.12242 0.0108081 10.585 0.0108032ZM9.67285 4.48639C8.79324 4.68163 8.10556 5.07089 7.61133 5.65338C7.11581 6.23755 6.86819 6.89296 6.86816 7.6192C6.86816 8.45079 7.1111 9.12444 7.59863 9.63873C8.08564 10.1523 8.85098 10.5941 9.89258 10.9649C11.0039 11.3706 11.7744 11.7325 12.2051 12.0489C12.6342 12.3642 12.8486 12.7749 12.8486 13.2823C12.8486 13.8611 12.6428 14.285 12.2324 14.5557C11.8203 14.8275 11.3241 14.9629 10.7441 14.963C10.1648 14.963 9.65075 14.7837 9.20312 14.4239C8.75595 14.0643 8.427 13.5241 8.21582 12.8028L8.21191 12.7891L8.19922 12.794L6.45215 13.4825L6.44141 13.4864L6.44531 13.4971C6.69277 14.3455 7.07743 15.0316 7.59961 15.5538C8.1199 16.0739 8.79355 16.4311 9.62012 16.626V18.0049H11.4971V16.6788C12.3766 16.5188 13.1342 16.1761 13.7686 15.6475C14.4072 15.1153 14.7256 14.3258 14.7256 13.2823C14.7256 12.5388 14.5127 11.8569 14.0879 11.2374C13.7154 10.6944 13.0185 10.214 11.999 9.79498L11.542 9.61823L10.8096 9.36237C10.1384 9.1144 9.65093 8.89121 9.34766 8.69342C8.94552 8.43098 8.74512 8.0732 8.74512 7.6192C8.74514 7.16394 8.90734 6.806 9.23047 6.54401C9.55373 6.28204 10.0221 6.14951 10.6377 6.14948C11.2003 6.14948 11.6385 6.28582 11.9531 6.5567C12.269 6.82867 12.4973 7.16664 12.6377 7.57037L12.6416 7.58307L12.6533 7.57819L14.3477 6.88971L14.3584 6.8858L14.3545 6.87506C14.1597 6.25533 13.8012 5.715 13.2793 5.25494C12.7601 4.79733 12.1834 4.54063 11.5498 4.48541V3.16119H9.67285V4.48639Z" stroke="black" stroke-opacity="0.2" stroke-width="0.025"/>
<path d="M10.585 0.0108032C12.0475 0.0108032 13.4219 0.287906 14.708 0.842834C15.9944 1.39794 17.114 2.15113 18.0654 3.1026C19.0169 4.05409 19.7701 5.17357 20.3252 6.46002C20.8801 7.74617 21.1572 9.12052 21.1572 10.5831C21.1572 12.0456 20.8801 13.42 20.3252 14.7061C19.7701 15.9926 19.0169 17.1121 18.0654 18.0635C17.1139 19.015 15.9945 19.7682 14.708 20.3233C13.4219 20.8782 12.0475 21.1553 10.585 21.1553C9.12241 21.1553 7.74806 20.8783 6.46191 20.3233C5.17546 19.7682 4.05598 19.015 3.10449 18.0635C2.15302 17.1121 1.39983 15.9926 0.844727 14.7061C0.289798 13.42 0.0126953 12.0456 0.0126953 10.5831C0.0127002 9.12053 0.289784 7.74616 0.844727 6.46002C1.39984 5.17357 2.15301 4.05409 3.10449 3.1026C4.05598 2.15111 5.17546 1.39795 6.46191 0.842834C7.74805 0.287892 9.12242 0.0108081 10.585 0.0108032ZM9.67285 4.48639C8.79324 4.68163 8.10556 5.07089 7.61133 5.65338C7.11581 6.23755 6.86819 6.89296 6.86816 7.6192C6.86816 8.45079 7.1111 9.12444 7.59863 9.63873C8.08564 10.1523 8.85098 10.5941 9.89258 10.9649C11.0039 11.3706 11.7744 11.7325 12.2051 12.0489C12.6342 12.3642 12.8486 12.7749 12.8486 13.2823C12.8486 13.8611 12.6428 14.285 12.2324 14.5557C11.8203 14.8275 11.3241 14.9629 10.7441 14.963C10.1648 14.963 9.65075 14.7837 9.20312 14.4239C8.75595 14.0643 8.427 13.5241 8.21582 12.8028L8.21191 12.7891L8.19922 12.794L6.45215 13.4825L6.44141 13.4864L6.44531 13.4971C6.69277 14.3455 7.07743 15.0316 7.59961 15.5538C8.1199 16.0739 8.79355 16.4311 9.62012 16.626V18.0049H11.4971V16.6788C12.3766 16.5188 13.1342 16.1761 13.7686 15.6475C14.4072 15.1153 14.7256 14.3258 14.7256 13.2823C14.7256 12.5388 14.5127 11.8569 14.0879 11.2374C13.7154 10.6944 13.0185 10.214 11.999 9.79498L11.542 9.61823L10.8096 9.36237C10.1384 9.1144 9.65093 8.89121 9.34766 8.69342C8.94552 8.43098 8.74512 8.0732 8.74512 7.6192C8.74514 7.16394 8.90734 6.806 9.23047 6.54401C9.55373 6.28204 10.0221 6.14951 10.6377 6.14948C11.2003 6.14948 11.6385 6.28582 11.9531 6.5567C12.269 6.82867 12.4973 7.16664 12.6377 7.57037L12.6416 7.58307L12.6533 7.57819L14.3477 6.88971L14.3584 6.8858L14.3545 6.87506C14.1597 6.25533 13.8012 5.715 13.2793 5.25494C12.7601 4.79733 12.1834 4.54063 11.5498 4.48541V3.16119H9.67285V4.48639Z" stroke="black" stroke-opacity="0.2" stroke-width="0.025"/>
<defs>
<linearGradient id="paint0_linear_5_250" x1="-1.3137" y1="10.5831" x2="21.17" y2="10.5831" gradientUnits="userSpaceOnUse">
<stop offset="0.0001" stop-color="#E855DE"/>
<stop offset="1" stop-color="#5400EE"/>
</linearGradient>
</defs>
</svg>
